<svg width="200" height="53" viewBox="0 0 200 53" fill="none" xmlns="http://www.w3.org/2000/svg">
<path d="M16.3881 47.3257L11.6744 39.1613L18.592 27.2126L22.9878 34.827L48.9374 34.8131L41.5741 47.4384L16.3881 47.3257Z" fill="#FFAD64"/>
<path d="M53.5712 26.7061L48.8575 34.8703L35.0509 34.8541L39.4471 27.2399L26.4603 4.77383L41.0758 4.83796L53.5712 26.7061Z" fill="#ADD4D3"/>
<path d="M17.1146 4.73038H26.542L33.4312 16.6957L24.6388 16.6952L11.6763 39.1752L4.42398 26.4858L17.1146 4.73038Z" fill="#FB8351"/>
<path fill-rule="evenodd" clip-rule="evenodd" d="M27.6913 2.84003L27.6632 2.79126H16.0009L2.18484 26.476L11.6688 43.0702L11.6805 43.05L15.2658 49.26L42.6852 49.3826L52.3143 32.872H52.2503L55.8074 26.711L42.2039 2.90369L27.6913 2.84003ZM36.7127 18.6348H36.7855L29.93 6.7283L39.9475 6.77223L51.3348 26.701L47.7706 32.8747L38.43 32.8796L41.6867 27.2391L36.7127 18.6348ZM25.3164 6.66961L29.9909 14.7562L23.5187 14.7561L12.4382 33.9719L11.6824 35.2776L6.66334 26.4957L18.2285 6.66961H25.3164ZM20.822 27.1965L25.7591 18.6345L32.233 18.6348L37.2075 27.2403L33.9501 32.882L24.1074 32.8874L20.822 27.1965ZM13.9182 39.1691L15.7965 35.9119L18.5897 31.0871L21.8687 36.767L31.71 36.7616L31.6941 36.7891L45.5306 36.8055L40.4632 45.4944L17.5107 45.3916L13.9182 39.1691Z" fill="#333237"/>
<path d="M74.12 26.76C74.9467 26.9467 75.6 27.36 76.08 28C76.5733 28.6267 76.82 29.3467 76.82 30.16C76.82 31.36 76.4067 32.3 75.58 32.98C74.7533 33.66 73.5933 34 72.1 34H65.12V19.9H71.88C73.32 19.9 74.4467 20.22 75.26 20.86C76.0867 21.5 76.5 22.4 76.5 23.56C76.5 24.3867 76.28 25.08 75.84 25.64C75.4133 26.1867 74.84 26.56 74.12 26.76ZM69.04 25.5H71.02C72.0067 25.5 72.5 25.0933 72.5 24.28C72.5 23.44 72.0067 23.02 71.02 23.02H69.04V25.5ZM71.32 30.84C72.3067 30.84 72.8 30.4267 72.8 29.6C72.8 29.1733 72.6667 28.8467 72.4 28.62C72.1467 28.3933 71.78 28.28 71.3 28.28H69.04V30.84H71.32ZM90.618 22.78L83.498 39.34H79.238L81.918 33.52L77.318 22.78H81.678L84.038 29.14L86.318 22.78H90.618ZM98.2634 30.66V34H96.5634C93.6968 34 92.2634 32.58 92.2634 29.74V26.04H90.8834V22.78H92.2634V20.06H96.2034V22.78H98.2434V26.04H96.2034V29.8C96.2034 30.1067 96.2701 30.3267 96.4034 30.46C96.5501 30.5933 96.7901 30.66 97.1234 30.66H98.2634ZM110.781 28.26C110.781 28.5667 110.761 28.8733 110.721 29.18H103.301C103.341 29.7933 103.508 30.2533 103.801 30.56C104.108 30.8533 104.495 31 104.961 31C105.615 31 106.081 30.7067 106.361 30.12H110.541C110.368 30.8933 110.028 31.5867 109.521 32.2C109.028 32.8 108.401 33.2733 107.641 33.62C106.881 33.9667 106.041 34.14 105.121 34.14C104.015 34.14 103.028 33.9067 102.161 33.44C101.308 32.9733 100.635 32.3067 100.141 31.44C99.6614 30.5733 99.4214 29.5533 99.4214 28.38C99.4214 27.2067 99.6614 26.1933 100.141 25.34C100.621 24.4733 101.288 23.8067 102.141 23.34C103.008 22.8733 104.001 22.64 105.121 22.64C106.228 22.64 107.208 22.8667 108.061 23.32C108.915 23.7733 109.581 24.4267 110.061 25.28C110.541 26.12 110.781 27.1133 110.781 28.26ZM106.781 27.28C106.781 26.8 106.621 26.4267 106.301 26.16C105.981 25.88 105.581 25.74 105.101 25.74C104.621 25.74 104.228 25.8733 103.921 26.14C103.615 26.3933 103.415 26.7733 103.321 27.28H106.781Z" fill="#333237"/>
<path d="M111.746 28.38C111.746 27.22 111.986 26.2067 112.466 25.34C112.946 24.4733 113.612 23.8067 114.466 23.34C115.332 22.8733 116.319 22.64 117.426 22.64C118.852 22.64 120.052 23.0333 121.026 23.82C121.999 24.5933 122.626 25.68 122.906 27.08H118.746C118.506 26.3467 118.039 25.98 117.346 25.98C116.852 25.98 116.459 26.1867 116.166 26.6C115.886 27 115.746 27.5933 115.746 28.38C115.746 29.1667 115.886 29.7667 116.166 30.18C116.459 30.5933 116.852 30.8 117.346 30.8C118.052 30.8 118.519 30.4333 118.746 29.7H122.906C122.626 31.0867 121.999 32.1733 121.026 32.96C120.052 33.7467 118.852 34.14 117.426 34.14C116.319 34.14 115.332 33.9067 114.466 33.44C113.612 32.9733 112.946 32.3067 112.466 31.44C111.986 30.5733 111.746 29.5533 111.746 28.38ZM129.754 34.14C128.634 34.14 127.627 33.9067 126.734 33.44C125.854 32.9733 125.161 32.3067 124.654 31.44C124.147 30.5733 123.894 29.5533 123.894 28.38C123.894 27.22 124.147 26.2067 124.654 25.34C125.174 24.4733 125.874 23.8067 126.754 23.34C127.647 22.8733 128.654 22.64 129.774 22.64C130.894 22.64 131.894 22.8733 132.774 23.34C133.667 23.8067 134.367 24.4733 134.874 25.34C135.394 26.2067 135.654 27.22 135.654 28.38C135.654 29.54 135.394 30.56 134.874 31.44C134.367 32.3067 133.667 32.9733 132.774 33.44C131.881 33.9067 130.874 34.14 129.754 34.14ZM129.754 30.74C130.301 30.74 130.754 30.54 131.114 30.14C131.487 29.7267 131.674 29.14 131.674 28.38C131.674 27.62 131.487 27.04 131.114 26.64C130.754 26.24 130.307 26.04 129.774 26.04C129.241 26.04 128.794 26.24 128.434 26.64C128.074 27.04 127.894 27.62 127.894 28.38C127.894 29.1533 128.067 29.74 128.414 30.14C128.761 30.54 129.207 30.74 129.754 30.74ZM136.609 28.38C136.609 27.22 136.816 26.2067 137.229 25.34C137.656 24.4733 138.236 23.8067 138.969 23.34C139.702 22.8733 140.516 22.64 141.409 22.64C142.129 22.64 142.769 22.7933 143.329 23.1C143.902 23.3933 144.349 23.8 144.669 24.32V19.2H148.609V34H144.669V32.44C144.362 32.96 143.929 33.3733 143.369 33.68C142.809 33.9867 142.149 34.14 141.389 34.14C140.496 34.14 139.682 33.9067 138.949 33.44C138.229 32.9733 137.656 32.3067 137.229 31.44C136.816 30.56 136.609 29.54 136.609 28.38ZM144.689 28.38C144.689 27.66 144.489 27.0933 144.089 26.68C143.702 26.2667 143.222 26.06 142.649 26.06C142.062 26.06 141.576 26.2667 141.189 26.68C140.802 27.08 140.609 27.6467 140.609 28.38C140.609 29.1 140.802 29.6733 141.189 30.1C141.576 30.5133 142.062 30.72 142.649 30.72C143.222 30.72 143.702 30.5133 144.089 30.1C144.489 29.6867 144.689 29.1133 144.689 28.38ZM161.563 28.26C161.563 28.5667 161.543 28.8733 161.503 29.18H154.083C154.123 29.7933 154.289 30.2533 154.583 30.56C154.889 30.8533 155.276 31 155.743 31C156.396 31 156.863 30.7067 157.143 30.12H161.323C161.149 30.8933 160.809 31.5867 160.303 32.2C159.809 32.8 159.183 33.2733 158.423 33.62C157.663 33.9667 156.823 34.14 155.903 34.14C154.796 34.14 153.809 33.9067 152.943 33.44C152.089 32.9733 151.416 32.3067 150.923 31.44C150.443 30.5733 150.203 29.5533 150.203 28.38C150.203 27.2067 150.443 26.1933 150.923 25.34C151.403 24.4733 152.069 23.8067 152.923 23.34C153.789 22.8733 154.783 22.64 155.903 22.64C157.009 22.64 157.989 22.8667 158.843 23.32C159.696 23.7733 160.363 24.4267 160.843 25.28C161.323 26.12 161.563 27.1133 161.563 28.26ZM157.563 27.28C157.563 26.8 157.403 26.4267 157.083 26.16C156.763 25.88 156.363 25.74 155.883 25.74C155.403 25.74 155.009 25.8733 154.703 26.14C154.396 26.3933 154.196 26.7733 154.103 27.28H157.563ZM165.067 34.16C164.374 34.16 163.814 33.9733 163.387 33.6C162.974 33.2133 162.767 32.7267 162.767 32.14C162.767 31.5533 162.974 31.0667 163.387 30.68C163.814 30.2933 164.374 30.1 165.067 30.1C165.747 30.1 166.294 30.2933 166.707 30.68C167.134 31.0667 167.347 31.5533 167.347 32.14C167.347 32.7133 167.134 33.1933 166.707 33.58C166.294 33.9667 165.747 34.16 165.067 34.16Z" fill="#FB8351"/>
</svg>